<svg width="202" height="138" viewBox="0 0 202 138" fill="none" xmlns="http://www.w3.org/2000/svg">
<g clip-path="url(#clip0_1204_2540)">
<path fill-rule="evenodd" clip-rule="evenodd" d="M150.16 60.03C149.88 61.42 149.57 62.81 149.31 64.2C148.75 67.26 148.14 70.32 147.7 73.4C147.42 75.38 147.37 77.39 147.27 79.39C147.24 79.94 147.1 80.14 146.54 80.13C144.98 80.1 143.42 80.11 141.86 80.13C141.38 80.13 141.2 79.98 141.24 79.49C141.34 78.35 141.39 77.2 141.38 76C141.2 76.25 141.03 76.51 140.85 76.76C139.6 78.57 137.98 79.88 135.8 80.39C131.6 81.37 127.99 78.91 127.45 74.6C126.52 67.26 130.88 59.07 140.12 57.77C143.36 57.31 146.53 57.62 149.67 58.44C149.84 58.48 150 58.56 150.16 58.62V60.02V60.03ZM141.32 62.57C140.39 62.53 139.33 62.83 138.39 63.48C136.17 64.99 134.99 67.18 134.4 69.73C134.09 71.05 134 72.39 134.52 73.7C134.96 74.82 135.79 75.33 136.99 75.24C138.01 75.17 138.77 74.6 139.43 73.89C140.61 72.61 141.3 71.06 141.7 69.4C142.12 67.64 142.4 65.85 142.74 64.07C142.927 63.1033 142.457 62.6033 141.33 62.57" fill="#CB0538"/>
<path fill-rule="evenodd" clip-rule="evenodd" d="M85.0204 80.06C85.2704 78.72 85.5004 77.46 85.7404 76.2C86.2904 73.27 86.8704 70.35 87.3604 67.41C87.5104 66.5 87.5304 65.54 87.4304 64.63C87.2904 63.28 86.2304 62.63 84.8904 62.93C83.8004 63.17 83.0104 63.85 82.3504 64.69C80.9204 66.5 80.2804 68.63 79.8704 70.86C79.3404 73.77 78.7904 76.68 78.2604 79.59C78.2004 79.92 78.1004 80.12 77.7204 80.12C75.8304 80.12 73.9404 80.12 72.0504 80.12C71.9404 80.12 71.8304 80.08 71.6304 80.04C71.7204 79.5 71.8004 78.97 71.9004 78.44C72.9604 72.7 74.0304 66.95 75.0904 61.21C75.2504 60.33 75.3804 59.44 75.4804 58.55C75.5204 58.18 75.6704 58.04 76.0404 58.05C77.6404 58.05 79.2404 58.05 80.8304 58.05C81.2004 58.05 81.3704 58.14 81.3104 58.56C81.2104 59.25 81.1504 59.95 81.0804 60.65C81.0504 60.89 81.0504 61.14 81.0304 61.39C81.8404 60.65 82.5604 59.88 83.4004 59.27C85.3904 57.81 87.6504 57.29 90.1004 57.69C92.3504 58.07 93.9004 59.75 94.2704 62.15C94.5704 64.11 94.2604 66.04 93.9004 67.95C93.1904 71.82 92.4304 75.68 91.7104 79.54C91.6304 79.96 91.4804 80.14 91.0304 80.14C89.2204 80.12 87.4104 80.14 85.5904 80.13C85.4404 80.13 85.2904 80.1 85.0204 80.07" fill="#CB0538"/>
<path fill-rule="evenodd" clip-rule="evenodd" d="M67.3501 74.05C67.4701 75.29 67.5901 76.41 67.7001 77.53C67.7001 77.61 67.7001 77.69 67.7101 77.76C67.7901 78.88 67.8001 78.9 66.7601 79.29C63.5201 80.5 60.1901 80.98 56.7701 80.3C52.9301 79.54 50.5401 76.88 50.1301 72.99C49.6601 68.6 50.8901 64.74 53.8401 61.45C56.8901 58.04 62.1901 56.64 66.3001 58.13C71.3501 59.95 71.3901 65.77 69.1801 68.29C68.0001 69.63 66.4601 70.36 64.7901 70.82C62.3101 71.51 59.7701 71.67 57.2001 71.63C56.2801 71.62 56.2601 71.66 56.4801 72.55C56.8501 74.08 57.9201 74.89 59.3501 75.22C61.7501 75.78 64.0701 75.33 66.3401 74.48C66.6501 74.37 66.9401 74.23 67.3701 74.05M57.0601 66.86C58.3601 66.77 59.6101 66.75 60.8401 66.58C61.6901 66.46 62.5501 66.2 63.3501 65.86C64.1401 65.53 64.5001 64.71 64.3901 63.94C64.2901 63.22 63.7601 62.68 62.9001 62.48C59.8301 61.79 57.3901 64.54 57.0701 66.85" fill="#CB0538"/>
<path fill-rule="evenodd" clip-rule="evenodd" d="M124.02 63.33C123.49 63.16 123.02 62.98 122.53 62.85C121.3 62.52 120.06 62.29 118.78 62.51C118.49 62.56 118.21 62.63 117.94 62.75C116.68 63.31 116.45 64.62 117.51 65.51C118.04 65.96 118.69 66.26 119.28 66.63C120.21 67.2 121.19 67.69 122.05 68.35C124.55 70.27 124.98 72.91 123.85 75.73C122.96 77.95 121.16 79.23 118.95 79.92C115.58 80.98 112.23 80.81 108.92 79.61C108.74 79.54 108.56 79.46 108.38 79.38C107.48 78.95 107.48 78.95 107.79 78.04C108.15 76.97 108.53 75.9 108.9 74.84C108.96 74.66 109.05 74.49 109.12 74.32C110.16 74.68 111.14 75.06 112.14 75.35C113.3 75.68 114.49 75.92 115.71 75.69C116.56 75.53 117.27 75.15 117.5 74.23C117.73 73.33 117.3 72.66 116.63 72.16C116.09 71.76 115.47 71.45 114.89 71.09C114.04 70.55 113.13 70.07 112.35 69.44C109.13 66.83 110.05 62.93 111.64 60.91C112.68 59.6 114.03 58.74 115.6 58.23C118.69 57.24 121.78 57.31 124.84 58.36C125.61 58.62 125.6 58.65 125.36 59.4C124.99 60.51 124.62 61.62 124.25 62.72C124.18 62.92 124.1 63.11 124.01 63.33" fill="#CB0538"/>
<path fill-rule="evenodd" clip-rule="evenodd" d="M96.6504 80.02C96.8704 78.83 97.0804 77.68 97.3004 76.54C98.4204 70.67 99.5404 64.79 100.65 58.92C100.82 58.05 100.81 58.04 101.67 58.04C103.33 58.04 104.98 58.04 106.64 58.04C107.32 58.04 107.35 58.08 107.23 58.74C106.2 64.2 105.17 69.65 104.14 75.11C103.86 76.62 103.56 78.13 103.29 79.65C103.23 79.98 103.09 80.13 102.76 80.13C100.85 80.13 98.9404 80.13 97.0304 80.12C96.9404 80.12 96.8404 80.08 96.6504 80.03" fill="#CB0538"/>
<path fill-rule="evenodd" clip-rule="evenodd" d="M11.8903 60.85C12.0503 59.66 12.2203 58.47 12.3803 57.28C12.5503 56.07 12.7203 54.85 12.9103 53.64C12.9803 53.21 12.8603 52.96 12.4403 52.78C10.8503 52.09 7.35027 50.49 7.03027 50.34C7.39027 50.23 11.3803 49.1 13.1703 48.65C13.6603 48.52 13.8603 48.27 13.9503 47.8C14.3303 45.85 15.2203 41.63 15.3103 41.29C15.8103 42.44 16.2503 43.43 16.6803 44.42C17.0203 45.21 17.3803 45.98 17.6903 46.79C17.8403 47.19 18.0403 47.26 18.4403 47.16C20.2803 46.71 24.1403 45.82 24.4003 45.77C24.2103 46.05 21.4503 49.58 20.1503 51.13C19.7503 51.61 19.7303 52.01 19.9703 52.55C20.6403 54.13 22.0103 57.63 22.1003 57.92C21.8203 57.8 18.6303 56.31 17.2103 55.61C16.8403 55.43 16.6503 55.47 16.3803 55.79C15.0903 57.36 11.9503 60.88 11.9003 60.86" fill="#3A63A3"/>
<path fill-rule="evenodd" clip-rule="evenodd" d="M15.0102 88.45C14.0902 88 13.1702 87.56 12.2502 87.1C11.6202 86.79 10.9902 86.49 10.3702 86.16C10.0302 85.98 9.82023 86.03 9.58023 86.33C8.18023 88.05 5.10023 91.75 4.86023 91.83C5.07023 90.57 5.28023 89.31 5.49023 88.05C5.70023 86.76 5.91023 85.47 6.14023 84.19C6.22023 83.76 6.09023 83.57 5.68023 83.42C4.04023 82.79 0.370234 81.3 -0.00976562 81.14C0.380234 81.01 4.44023 79.86 6.25023 79.4C6.77023 79.27 6.96023 79 7.06023 78.5C7.43023 76.53 8.32023 72.28 8.41023 71.97C8.93023 73.2 9.39023 74.29 9.85023 75.38C10.1602 76.12 10.4802 76.85 10.7702 77.59C10.9202 77.97 11.1102 78.08 11.5202 77.97C13.3802 77.47 17.3302 76.47 17.6302 76.42C17.0102 77.18 14.0502 80.77 13.0602 81.92C12.8102 82.21 12.7702 82.45 12.9102 82.81C13.5802 84.45 15.0302 88.43 15.0002 88.47" fill="#516DA7"/>
<path fill-rule="evenodd" clip-rule="evenodd" d="M34.5801 19.96C34.7501 20.37 34.9501 20.78 35.0901 21.2C35.2401 21.66 35.4601 21.78 35.9501 21.66C37.6601 21.21 41.4501 20.36 41.7701 20.3C41.5901 20.56 38.8201 24.09 37.5101 25.69C37.2101 26.05 37.1701 26.35 37.3601 26.79C38.0401 28.39 39.4701 32 39.6001 32.37C39.2101 32.19 36.1901 30.7 34.9501 30.05C34.5801 29.86 34.3801 29.91 34.1201 30.22C32.8401 31.74 29.8201 35.25 29.4701 35.45C29.5801 34.62 29.6801 33.79 29.7901 32.97C30.0201 31.31 30.2301 29.65 30.4901 28C30.5601 27.57 30.4101 27.41 30.0501 27.27C28.5201 26.63 25.0401 25.11 24.8301 24.87C25.0201 24.81 29.0401 23.63 30.8601 23.12C31.2701 23.01 31.4601 22.81 31.5601 22.39C31.9501 20.62 32.8901 16.69 32.9501 16.49C33.0001 16.49 34.0901 18.81 34.5801 19.97" fill="#3A63A3"/>
<path fill-rule="evenodd" clip-rule="evenodd" d="M31.2902 137.2C31.4202 136.33 32.0802 131.88 32.3102 130.54C32.3802 130.12 32.2102 129.94 31.8602 129.79C30.4002 129.14 27.2002 127.66 26.9302 127.52C27.2202 127.41 30.8602 126.34 32.5202 125.9C32.9902 125.78 33.1802 125.54 33.2602 125.09C33.6002 123.33 34.4302 119.53 34.5102 119.25C34.6402 119.55 35.9302 122.7 36.4602 124.11C36.6502 124.6 36.8602 124.76 37.4002 124.6C38.9902 124.15 42.5002 123.33 42.7802 123.29C41.9202 124.37 39.3602 127.64 38.8202 128.26C38.4902 128.64 38.4302 128.99 38.6302 129.47C39.2202 130.85 40.4302 134.04 40.5502 134.39C40.1802 134.23 37.5202 132.98 36.4302 132.41C36.0402 132.21 35.8102 132.27 35.5302 132.58C34.2902 134.01 31.3302 137.21 31.2902 137.19" fill="#6279AE"/>
<path fill-rule="evenodd" clip-rule="evenodd" d="M57.2203 4.38C57.5903 5.29 57.4203 5.17 58.3903 4.97C59.9903 4.65 63.4603 3.96 63.7603 3.93C62.9903 4.81 60.2203 7.99 59.4803 8.8C59.1903 9.11 59.1403 9.4 59.3203 9.79C59.9303 11.18 61.2703 14.42 61.4203 14.79C61.1203 14.67 58.4503 13.38 57.3203 12.77C56.9203 12.56 56.6903 12.59 56.4003 12.95C55.1003 14.53 52.4603 17.54 52.0203 17.88C52.1103 17.18 52.7803 12.45 53.0403 10.78C53.1003 10.39 52.9803 10.18 52.6003 10.02C51.2303 9.46 48.1703 8.11 47.8403 7.95C48.1803 7.83 51.7703 6.75 53.3603 6.3C53.7403 6.19 53.9303 6.01 54.0103 5.6C54.3603 3.91 55.2303 0.16 55.2703 0C55.3203 0 57.0603 4 57.2103 4.38" fill="#1B599B"/>
<path fill-rule="evenodd" clip-rule="evenodd" d="M7.86033 109.62C8.81033 109.35 12.4003 108.31 13.2503 108.11C13.6803 108.01 13.8503 107.79 13.9203 107.37C14.2703 105.53 15.0903 101.59 15.1703 101.28C15.6203 102.48 16.8303 105.63 16.9803 106.19C17.1103 106.67 17.3303 106.78 17.8103 106.67C19.5903 106.26 21.3803 105.9 23.3403 105.48C23.1503 105.77 20.6203 108.98 19.4403 110.41C19.1703 110.74 19.1203 111.02 19.2803 111.41C19.8303 112.78 20.3503 114.17 20.8803 115.55C20.9703 115.78 21.0403 116.01 21.1703 116.4C20.8303 116.25 20.6403 116.18 20.4603 116.09C19.3203 115.53 18.1803 114.99 17.0603 114.4C16.6003 114.15 16.3303 114.26 16.0303 114.64C14.8703 116.1 12.0103 119.44 11.9603 119.42C12.0503 118.6 12.5803 114.07 12.7703 112.63C12.8303 112.2 12.7103 111.95 12.2903 111.78C10.9803 111.23 7.84033 109.67 7.84033 109.62" fill="#516DA7"/>
<path fill-rule="evenodd" clip-rule="evenodd" d="M77.6103 19.43C77.7803 18.54 78.4303 15.2 78.6103 14.42C78.7003 14.06 78.5803 13.88 78.2603 13.74C77.1503 13.22 74.6103 11.99 74.3003 11.83C74.8903 11.64 77.5003 10.77 78.3903 10.54C78.8703 10.42 79.0403 10.15 79.1203 9.71001C79.3403 8.48001 79.9303 5.71001 80.0103 5.39001C80.1603 5.68001 81.2203 8.01002 81.6503 9.02002C81.7903 9.36002 81.9703 9.47002 82.3603 9.39002C83.6203 9.13002 86.4903 8.66001 86.8103 8.63001C86.3003 9.24001 85.8903 9.74001 85.4703 10.23C84.8303 10.99 84.2003 11.76 83.5403 12.5C83.3103 12.76 83.2803 12.98 83.4103 13.29C83.8203 14.32 84.7203 16.79 84.8403 17.14C84.5103 17.01 82.6003 16.1 81.8603 15.68C81.4803 15.46 81.2603 15.51 80.9803 15.84C80.0303 16.95 77.6503 19.45 77.6203 19.43" fill="#1B599B"/>
<path fill-rule="evenodd" clip-rule="evenodd" d="M54.5002 124.33C55.6702 124 56.8402 123.63 58.0302 123.34C58.6202 123.2 58.9002 122.91 59.0302 122.31C59.3102 121 59.6602 119.7 60.0302 118.22C60.1902 118.52 61.1802 120.72 61.5502 121.69C61.7202 122.13 61.9502 122.23 62.3802 122.14C63.4702 121.91 65.9802 121.47 66.3002 121.43C66.1102 121.69 64.2002 124.03 63.3302 125.02C63.0802 125.3 63.0702 125.53 63.2102 125.86C63.6502 126.88 64.5702 129.22 64.6702 129.53C63.7502 129.09 62.9702 128.73 62.1902 128.35C61.1202 127.82 61.1202 127.82 60.3602 128.72C59.5602 129.68 57.7102 131.83 57.6502 131.79C57.7702 130.72 57.9002 129.64 58.0202 128.57C58.1002 127.89 58.2102 127.22 58.2402 126.54C58.2402 126.35 58.0202 126.06 57.8302 125.97C56.8702 125.51 54.4902 124.37 54.4902 124.32" fill="#7385B5"/>
<path fill-rule="evenodd" clip-rule="evenodd" d="M96.2701 23.53C96.4401 23.96 96.6501 24.07 97.0901 23.98C98.3401 23.72 99.6001 23.5 100.96 23.37C100.81 23.57 98.9501 25.82 98.1501 26.73C97.9001 27.02 97.8601 27.28 97.9901 27.63C98.3901 28.66 99.2801 31.14 99.4001 31.5C98.5401 31.09 96.8301 30.25 96.6001 30.14C96.0001 29.82 95.6801 29.93 95.2901 30.41C94.5001 31.38 92.8201 33.15 92.4801 33.44C92.5701 32.81 92.6501 32.17 92.7501 31.54C92.8901 30.58 93.0101 29.61 93.1801 28.65C93.2601 28.22 93.1201 28.02 92.7301 27.86C91.7401 27.46 89.4501 26.41 89.1401 26.25C89.7601 26.06 92.3501 25.25 93.1801 25.07C93.7001 24.96 93.9101 24.7 93.9901 24.19C94.1601 22.98 94.6601 20.35 94.6901 20.24C94.7401 20.24 95.8201 22.41 96.2801 23.53" fill="#035092"/>
<path fill-rule="evenodd" clip-rule="evenodd" d="M76.8004 118.09C76.9404 117.16 77.0804 116.22 77.2204 115.29C77.3004 114.75 77.3804 114.21 77.4804 113.68C77.5604 113.26 77.4604 112.99 77.0304 112.81C76.1404 112.43 73.9804 111.36 73.6504 111.19C74.9704 110.8 76.1704 110.48 77.3104 110.11C77.8904 109.96 78.1304 109.67 78.2404 109.1C78.5404 107.87 78.7604 106.67 79.1604 105.43C79.3404 105.83 80.2804 107.94 80.5404 108.61C80.6904 109 80.9104 109.08 81.3104 108.99C82.3504 108.74 84.7104 108.27 84.9904 108.24C84.5204 108.85 84.1404 109.35 83.7504 109.85C83.2404 110.49 82.7404 111.14 82.2204 111.77C81.9804 112.06 81.9404 112.33 82.0904 112.68C82.5104 113.6 83.3804 115.76 83.4804 116.04C82.5204 115.62 81.6704 115.25 80.8304 114.87C79.9704 114.48 79.9604 114.47 79.3504 115.2C78.7204 115.96 76.8304 118.12 76.7904 118.1" fill="#8794C1"/>
<path fill-rule="evenodd" clip-rule="evenodd" d="M103.89 50.53C103.06 50.15 102.22 49.78 101.41 49.36C100.78 49.04 100.63 49.54 99.6703 50.62C99.2603 51.08 98.0103 52.31 97.9803 52.27C98.0603 51.63 98.4203 48.99 98.5403 48.32C98.6203 47.85 98.5003 47.56 98.0103 47.4C97.1703 47.07 95.3203 46.31 95.0303 46.16C96.2503 45.79 97.3703 45.49 98.4003 45.16C98.8603 45.01 99.2303 44.67 99.3303 44.2C99.5503 43.14 99.8403 42.09 100.1 41.03C100.21 41.28 101.07 42.88 101.49 43.84C101.61 44.12 101.93 44.27 102.22 44.19C103.31 43.89 104.37 43.6 105.43 43.31C105.26 43.58 103.76 45.63 103.53 45.92C102.87 46.76 102.9 47.19 103.18 48.09C103.41 48.87 103.77 50.29 103.89 50.53" fill="#035092"/>
<path fill-rule="evenodd" clip-rule="evenodd" d="M88.8401 98.47C88.9401 97.61 89.0201 96.75 89.1401 95.89C89.3701 94.28 89.3601 94.27 87.8401 93.59C87.1901 93.3 86.7301 93.03 86.0601 92.65C87.1201 92.35 88.2201 92.07 89.2501 91.76C89.7701 91.63 90.0001 91.39 90.1201 90.85C90.3701 89.77 90.5201 88.75 90.8401 87.69C91.2201 88.6 91.6301 89.49 91.9801 90.41C92.1501 90.87 92.3701 90.98 92.8501 90.86C93.8001 90.61 94.7701 90.43 95.8101 90.33C95.6401 90.57 94.2401 92.37 93.7001 93C93.4301 93.32 93.4701 93.62 93.5901 93.97C93.9301 94.91 94.2501 95.87 94.6401 96.97C94.3201 96.85 92.6301 96.13 91.9701 95.78C91.5701 95.57 91.3401 95.67 91.0801 95.99C90.4001 96.84 88.8901 98.47 88.8301 98.45" fill="#99A6CA"/>
<path d="M200.23 57.72H167.32V80.58H200.23V57.72Z" fill="#003399"/>
<path d="M191.95 70.25L191.22 69.7L190.45 70.25L190.75 69.38L189.99 68.82L190.91 68.84L191.21 67.95L191.48 68.82L192.42 68.83L191.67 69.36L191.95 70.25Z" fill="#FFCC00"/>
<path d="M191.21 67.87L190.89 68.81H189.92L190.72 69.39L190.41 70.31L191.22 69.73L192 70.31L191.98 70.24L191.7 69.36L192.5 68.8H191.5L191.21 67.86V67.87ZM190.91 68.84L191.21 67.95L191.48 68.83H192.42L191.67 69.37L191.95 70.27L191.22 69.72L190.45 70.27L190.75 69.4L189.99 68.84H190.91V68.84ZM191.95 70.27H191.97H191.95Z" fill="#FFCC00"/>
<path d="M191.21 67.95L190.91 68.84H189.99L190.75 69.39L190.45 70.26L191.22 69.71L191.95 70.26L191.67 69.36L192.42 68.83H191.48L191.21 67.95V67.95ZM190.93 68.86L191.21 68.02L191.46 68.84H192.34L191.64 69.34L191.91 70.18L191.22 69.66L190.5 70.17L190.78 69.35L190.07 68.82H190.93V68.86Z" fill="#FFCC00"/>
<path d="M190.96 66.55L190.22 66L189.46 66.54L189.75 65.67L189 65.12L189.92 65.13L190.21 64.24L190.48 65.11L191.42 65.12L190.67 65.65L190.96 66.55Z" fill="#FFCC00"/>
<path d="M190.21 64.16L189.89 65.1H188.92L189.72 65.68L189.41 66.6L190.22 66.02L191 66.6L190.98 66.53L190.7 65.65L191.5 65.09H190.5L190.21 64.15V64.16ZM189.91 65.13L190.21 64.24L190.48 65.12H191.42L190.67 65.66L190.95 66.56L190.22 66.01L189.45 66.56L189.75 65.69L188.99 65.13H189.91V65.13ZM190.95 66.56H190.97H190.95Z" fill="#FFCC00"/>
<path d="M190.21 64.24L189.91 65.13H188.99L189.75 65.68L189.45 66.55L190.22 66L190.95 66.55L190.67 65.65L191.42 65.12H190.48L190.21 64.24V64.24ZM189.93 65.15L190.21 64.31L190.46 65.13H191.34L190.64 65.63L190.91 66.47L190.22 65.95L189.5 66.46L189.78 65.64L189.07 65.11H189.93V65.15Z" fill="#FFCC00"/>
<path d="M188.32 63.87L187.59 63.32L186.82 63.87L187.12 63L186.36 62.44L187.28 62.45L187.58 61.56L187.85 62.44L188.79 62.45L188.04 62.97L188.32 63.87Z" fill="#FFCC00"/>
<path d="M187.58 61.49L187.26 62.43H186.29L187.09 63.01L186.78 63.93L187.59 63.35L188.37 63.93L188.35 63.86L188.07 62.98L188.86 62.42H187.87L187.58 61.48V61.49ZM187.28 62.46L187.58 61.57L187.85 62.45H188.79L188.04 62.99L188.32 63.89L187.59 63.34L186.82 63.89L187.12 63.02L186.36 62.46H187.28V62.46ZM188.32 63.89H188.34H188.32Z" fill="#FFCC00"/>
<path d="M187.58 61.56L187.28 62.45H186.36L187.12 63L186.82 63.87L187.59 63.32L188.32 63.87L188.04 62.97L188.79 62.44H187.85L187.58 61.56V61.56ZM187.3 62.47L187.58 61.63L187.83 62.45H188.71L188.01 62.95L188.28 63.79L187.59 63.27L186.87 63.78L187.15 62.96L186.44 62.43H187.3V62.47Z" fill="#FFCC00"/>
<path d="M184.61 62.84L183.88 62.29L183.11 62.83L183.41 61.97L182.65 61.41L183.57 61.42L183.87 60.53L184.14 61.41H185.08L184.33 61.94L184.61 62.84Z" fill="#FFCC00"/>
<path d="M183.87 60.45L183.55 61.39H182.58L183.38 61.97L183.07 62.89L183.88 62.31L184.66 62.89L184.64 62.82L184.36 61.94L185.16 61.38H184.16L183.87 60.44V60.45ZM183.57 61.42L183.87 60.53L184.14 61.41H185.08L184.33 61.95L184.61 62.85L183.88 62.3L183.11 62.85L183.41 61.98L182.65 61.42H183.57V61.42ZM184.61 62.85H184.63H184.61Z" fill="#FFCC00"/>
<path d="M183.87 60.53L183.57 61.42H182.65L183.41 61.97L183.11 62.84L183.88 62.29L184.61 62.84L184.33 61.94L185.08 61.41H184.14L183.87 60.53V60.53ZM183.59 61.44L183.87 60.6L184.12 61.42H185L184.3 61.92L184.57 62.76L183.88 62.24L183.16 62.75L183.44 61.93L182.73 61.4H183.59V61.44Z" fill="#FFCC00"/>
<path d="M180.94 63.83L180.21 63.28L179.44 63.83L179.74 62.96L178.98 62.4L179.9 62.42L180.2 61.52L180.47 62.4L181.41 62.41L180.66 62.93L180.94 63.83Z" fill="#FFCC00"/>
<path d="M180.2 61.45L179.88 62.39H178.91L179.71 62.97L179.4 63.89L180.21 63.31L180.99 63.89L180.97 63.82L180.69 62.94L181.48 62.38H180.49L180.2 61.44V61.45ZM179.9 62.42L180.2 61.53L180.47 62.41H181.41L180.66 62.95L180.94 63.85L180.21 63.3L179.44 63.85L179.74 62.98L178.98 62.42H179.9V62.42ZM180.94 63.85H180.96H180.94Z" fill="#FFCC00"/>
<path d="M180.2 61.52L179.9 62.41H178.98L179.74 62.96L179.44 63.83L180.21 63.28L180.94 63.83L180.66 62.93L181.41 62.4H180.47L180.2 61.52V61.52ZM179.92 62.43L180.2 61.59L180.45 62.41H181.33L180.63 62.91L180.9 63.75L180.21 63.23L179.49 63.74L179.77 62.92L179.06 62.39H179.92V62.43Z" fill="#FFCC00"/>
<path d="M178.19 66.51L177.46 65.96L176.69 66.5L176.99 65.64L176.23 65.08L177.15 65.09L177.45 64.2L177.72 65.08H178.66L177.91 65.61L178.19 66.51Z" fill="#FFCC00"/>
<path d="M177.45 64.12L177.13 65.06H176.16L176.96 65.64L176.65 66.56L177.46 65.98L178.24 66.56L178.22 66.49L177.94 65.61L178.74 65.05H177.74L177.45 64.11V64.12ZM177.15 65.09L177.45 64.2L177.72 65.08H178.66L177.91 65.62L178.19 66.52L177.46 65.97L176.69 66.52L176.99 65.65L176.23 65.09H177.15V65.09ZM178.19 66.52H178.21H178.19Z" fill="#FFCC00"/>
<path d="M177.45 64.2L177.15 65.09H176.23L176.99 65.64L176.69 66.51L177.46 65.96L178.19 66.51L177.91 65.61L178.66 65.08H177.72L177.45 64.2V64.2ZM177.17 65.11L177.45 64.27L177.7 65.09H178.58L177.88 65.59L178.15 66.43L177.46 65.91L176.74 66.42L177.02 65.6L176.31 65.07H177.17V65.11Z" fill="#FFCC00"/>
<path d="M177.2 70.22L176.46 69.67L175.7 70.21L175.99 69.34L175.24 68.79L176.15 68.8L176.45 67.91L176.72 68.78L177.66 68.79L176.91 69.32L177.2 70.22Z" fill="#FFCC00"/>
<path d="M176.45 67.83L176.13 68.77H175.16L175.96 69.35L175.65 70.27L176.46 69.69L177.24 70.27L177.22 70.2L176.94 69.32L177.73 68.76H176.74L176.45 67.82V67.83ZM176.15 68.8L176.45 67.91L176.72 68.79H177.66L176.91 69.33L177.19 70.23L176.46 69.68L175.69 70.23L175.99 69.36L175.23 68.8H176.15V68.8ZM177.19 70.23H177.21H177.19Z" fill="#FFCC00"/>
<path d="M176.45 67.91L176.15 68.8H175.23L175.99 69.35L175.69 70.22L176.46 69.67L177.19 70.22L176.91 69.32L177.66 68.79H176.72L176.45 67.91V67.91ZM176.17 68.82L176.45 67.98L176.7 68.8H177.58L176.88 69.3L177.15 70.14L176.46 69.62L175.74 70.13L176.02 69.31L175.31 68.78H176.17V68.82Z" fill="#FFCC00"/>
<path d="M178.19 74L177.46 73.45L176.69 73.99L176.99 73.13L176.23 72.57L177.15 72.58L177.45 71.69L177.72 72.57H178.66L177.91 73.1L178.19 74Z" fill="#FFCC00"/>
<path d="M177.45 71.62L177.13 72.56H176.16L176.96 73.14L176.65 74.06L177.46 73.48L178.24 74.06L178.22 73.99L177.94 73.11L178.74 72.55H177.74L177.45 71.61V71.62ZM177.15 72.59L177.45 71.7L177.72 72.58H178.66L177.91 73.12L178.19 74.02L177.46 73.47L176.69 74.02L176.99 73.15L176.23 72.59H177.15V72.59ZM178.19 74.02H178.21H178.19Z" fill="#FFCC00"/>
<path d="M177.45 71.69L177.15 72.58H176.23L176.99 73.13L176.69 74L177.46 73.45L178.19 74L177.91 73.1L178.66 72.57H177.72L177.45 71.69V71.69ZM177.17 72.6L177.45 71.76L177.7 72.58H178.58L177.88 73.08L178.15 73.92L177.46 73.4L176.74 73.91L177.02 73.1L176.31 72.57H177.17V72.6Z" fill="#FFCC00"/>
<path d="M180.87 76.75L180.13 76.2L179.37 76.75L179.66 75.88L178.91 75.32L179.82 75.33L180.12 74.44L180.39 75.32L181.33 75.33L180.58 75.85L180.87 76.75Z" fill="#FFCC00"/>
<path d="M180.12 74.37L179.8 75.31H178.83L179.63 75.89L179.32 76.81L180.13 76.23L180.91 76.81L180.89 76.74L180.61 75.86L181.4 75.3H180.41L180.12 74.36V74.37ZM179.82 75.34L180.12 74.45L180.39 75.33H181.33L180.58 75.87L180.86 76.77L180.13 76.22L179.36 76.77L179.66 75.9L178.9 75.34H179.82V75.34ZM180.86 76.77H180.88H180.86Z" fill="#FFCC00"/>
<path d="M180.12 74.44L179.82 75.33H178.9L179.66 75.88L179.36 76.75L180.13 76.2L180.86 76.75L180.58 75.85L181.33 75.32H180.39L180.12 74.44V74.44ZM179.84 75.35L180.12 74.51L180.37 75.33H181.25L180.55 75.83L180.82 76.67L180.13 76.15L179.41 76.66L179.69 75.84L178.98 75.31H179.84V75.35Z" fill="#FFCC00"/>
<path d="M184.57 77.74L183.84 77.2L183.07 77.74L183.37 76.87L182.62 76.32L183.53 76.33L183.83 75.44L184.1 76.31L185.04 76.32L184.29 76.85L184.57 77.74Z" fill="#FFCC00"/>
<path d="M183.83 75.36L183.51 76.3H182.54L183.34 76.88L183.03 77.8L183.84 77.22L184.62 77.8L184.6 77.73L184.32 76.85L185.12 76.29H184.12L183.83 75.35V75.36ZM183.53 76.33L183.83 75.44L184.1 76.32H185.04L184.29 76.86L184.57 77.76L183.84 77.21L183.07 77.76L183.37 76.89L182.61 76.33H183.53V76.33ZM184.57 77.76H184.59H184.57Z" fill="#FFCC00"/>
<path d="M183.83 75.44L183.53 76.33H182.61L183.37 76.88L183.07 77.75L183.84 77.2L184.57 77.75L184.29 76.85L185.04 76.32H184.1L183.83 75.44V75.44ZM183.55 76.35L183.83 75.51L184.08 76.33H184.96L184.26 76.83L184.53 77.67L183.84 77.15L183.12 77.66L183.4 76.85L182.69 76.32H183.55V76.35Z" fill="#FFCC00"/>
<path d="M188.28 76.75L187.55 76.2L186.78 76.75L187.08 75.88L186.32 75.32L187.24 75.33L187.54 74.44L187.81 75.32L188.75 75.33L188 75.85L188.28 76.75Z" fill="#FFCC00"/>
<path d="M187.54 74.37L187.22 75.31H186.25L187.05 75.89L186.74 76.81L187.55 76.23L188.33 76.81L188.31 76.74L188.03 75.86L188.82 75.3H187.83L187.54 74.36V74.37ZM187.24 75.34L187.54 74.45L187.81 75.33H188.75L188 75.87L188.28 76.77L187.55 76.22L186.78 76.77L187.08 75.9L186.32 75.34H187.24V75.34ZM188.28 76.77H188.3H188.28Z" fill="#FFCC00"/>
<path d="M187.54 74.44L187.24 75.33H186.32L187.08 75.88L186.78 76.75L187.55 76.2L188.28 76.75L188 75.85L188.75 75.32H187.81L187.54 74.44V74.44ZM187.26 75.35L187.54 74.51L187.79 75.33H188.67L187.97 75.83L188.24 76.67L187.55 76.15L186.83 76.66L187.11 75.84L186.4 75.31H187.26V75.35Z" fill="#FFCC00"/>
<path d="M191.03 74L190.3 73.45L189.53 73.99L189.83 73.13L189.08 72.57L189.99 72.58L190.29 71.69L190.56 72.57H191.5L190.75 73.1L191.03 74Z" fill="#FFCC00"/>
<path d="M190.29 71.62L189.97 72.56H189L189.8 73.14L189.49 74.06L190.3 73.48L191.08 74.06L191.06 73.99L190.78 73.11L191.57 72.55H190.58L190.29 71.61V71.62ZM189.99 72.59L190.29 71.7L190.56 72.58H191.5L190.75 73.12L191.03 74.02L190.3 73.47L189.53 74.02L189.83 73.15L189.07 72.59H189.99V72.59ZM191.03 74.02H191.05H191.03Z" fill="#FFCC00"/>
<path d="M190.29 71.69L189.99 72.58H189.07L189.83 73.13L189.53 74L190.3 73.45L191.03 74L190.75 73.1L191.5 72.57H190.56L190.29 71.69V71.69ZM190.01 72.6L190.29 71.76L190.54 72.58H191.42L190.72 73.08L190.99 73.92L190.3 73.4L189.58 73.91L189.86 73.1L189.15 72.57H190.01V72.6Z" fill="#FFCC00"/>
<path d="M196.24 120.89H195.27L197.82 125.62V128.55H198.72V125.58L201.28 120.89H200.32L198.28 124.72L196.25 120.89H196.24ZM192.19 121.68H194.62V120.89H188.87V121.68H191.3V128.55H192.19V121.68ZM187.71 120.89H186.82V128.55H187.71V120.89V120.89ZM181.11 121.67H182.27C182.93 121.67 183.41 121.78 183.71 122.01C184.01 122.23 184.16 122.6 184.16 123.11C184.16 123.62 184.01 123.98 183.72 124.23C183.43 124.48 182.97 124.6 182.34 124.6H181.12V121.67H181.11ZM182.71 125.37L184.57 128.56H185.62L183.54 125.12C184.57 124.76 185.08 124.08 185.08 123.06C185.08 122.34 184.86 121.79 184.41 121.44C183.96 121.08 183.27 120.9 182.33 120.9H180.23V128.56H181.12V125.37H182.72H182.71ZM177.42 120.89V125.88C177.42 126.52 177.25 127.02 176.9 127.36C176.55 127.7 176.05 127.88 175.41 127.88C174.77 127.88 174.22 127.71 173.87 127.37C173.52 127.03 173.35 126.54 173.35 125.9V120.9H172.46V125.84C172.46 126.72 172.71 127.41 173.22 127.92C173.73 128.42 174.44 128.67 175.36 128.67C176.28 128.67 177.01 128.42 177.54 127.92C178.07 127.42 178.33 126.73 178.33 125.86V120.9H177.44L177.42 120.89ZM170.84 121.99L171.22 121.22C170.62 120.93 169.92 120.78 169.11 120.78C168.35 120.78 167.7 120.94 167.14 121.26C166.58 121.58 166.16 122.04 165.86 122.63C165.57 123.22 165.42 123.92 165.42 124.71C165.42 125.97 165.73 126.95 166.34 127.63C166.95 128.31 167.82 128.66 168.95 128.66C169.73 128.66 170.38 128.56 170.91 128.36V127.58C170.23 127.77 169.62 127.87 169.08 127.87C168.21 127.87 167.54 127.6 167.07 127.05C166.6 126.5 166.36 125.73 166.36 124.73C166.36 123.73 166.6 122.99 167.09 122.43C167.58 121.87 168.24 121.59 169.08 121.59C169.66 121.59 170.24 121.73 170.82 122M164.27 127.77H160.89V124.95H164.07V124.16H160.89V121.69H164.27V120.9H160V128.56H164.27V127.76V127.77ZM158.16 125.25C157.86 124.92 157.31 124.61 156.5 124.33C156.02 124.16 155.67 124 155.43 123.86C155.2 123.72 155.03 123.56 154.93 123.39C154.83 123.22 154.78 123 154.78 122.74C154.78 122.38 154.91 122.1 155.18 121.9C155.45 121.7 155.81 121.6 156.29 121.6C156.89 121.6 157.5 121.73 158.14 122L158.42 121.22C157.78 120.94 157.08 120.8 156.32 120.8C155.56 120.8 155 120.98 154.56 121.33C154.12 121.68 153.89 122.15 153.89 122.74C153.89 123.33 154.04 123.76 154.35 124.11C154.66 124.46 155.17 124.76 155.88 125.02C156.39 125.2 156.77 125.36 157.02 125.51C157.27 125.65 157.45 125.81 157.56 125.98C157.67 126.15 157.72 126.37 157.72 126.63C157.72 127.03 157.57 127.35 157.27 127.57C156.97 127.8 156.52 127.91 155.93 127.91C155.57 127.91 155.2 127.87 154.83 127.79C154.46 127.71 154.12 127.61 153.8 127.48V128.34C154.29 128.57 154.99 128.69 155.9 128.69C156.74 128.69 157.4 128.5 157.89 128.12C158.38 127.74 158.62 127.22 158.62 126.54C158.62 126.02 158.47 125.59 158.17 125.26M148.36 121.7H149.52C150.18 121.7 150.66 121.81 150.96 122.04C151.26 122.26 151.41 122.63 151.41 123.14C151.41 123.65 151.26 124.01 150.97 124.26C150.68 124.51 150.21 124.63 149.59 124.63H148.37V121.7H148.36ZM149.96 125.4L151.82 128.59H152.87L150.79 125.15C151.82 124.79 152.33 124.11 152.33 123.09C152.33 122.37 152.11 121.82 151.66 121.47C151.21 121.11 150.52 120.93 149.58 120.93H147.48V128.59H148.37V125.4H149.97H149.96ZM145.99 127.79H142.61V124.97H145.79V124.18H142.61V121.71H145.99V120.92H141.72V128.58H145.99V127.78V127.79ZM137.24 124.96C137.89 124.96 138.38 125.07 138.7 125.3C139.02 125.52 139.18 125.87 139.18 126.35C139.18 126.86 139.02 127.24 138.71 127.47C138.4 127.7 137.93 127.83 137.31 127.83H135.71V124.96H137.24ZM135.71 121.69H137.02C137.69 121.69 138.18 121.79 138.49 121.98C138.8 122.17 138.95 122.48 138.95 122.91C138.95 123.38 138.81 123.71 138.54 123.91C138.26 124.11 137.81 124.21 137.18 124.21H135.71V121.7V121.69ZM134.82 128.58H137.49C138.32 128.58 138.97 128.39 139.43 128C139.89 127.62 140.12 127.08 140.12 126.4C140.12 125.38 139.54 124.76 138.37 124.57V124.52C138.86 124.43 139.23 124.24 139.48 123.95C139.73 123.65 139.86 123.28 139.86 122.83C139.86 122.17 139.63 121.69 139.18 121.39C138.72 121.09 137.99 120.93 136.97 120.93H134.8V128.59L134.82 128.58ZM128.67 120.92H127.7L130.25 125.65V128.58H131.15V125.61L133.71 120.92H132.75L130.71 124.75L128.68 120.92H128.67ZM126.6 122.02L126.98 121.25C126.38 120.96 125.68 120.81 124.87 120.81C124.12 120.81 123.46 120.97 122.9 121.29C122.34 121.61 121.92 122.07 121.62 122.66C121.33 123.25 121.18 123.95 121.18 124.74C121.18 126 121.49 126.98 122.1 127.66C122.71 128.34 123.58 128.69 124.71 128.69C125.49 128.69 126.14 128.59 126.68 128.39V127.61C125.99 127.8 125.38 127.9 124.85 127.9C123.98 127.9 123.31 127.63 122.84 127.08C122.37 126.53 122.13 125.76 122.13 124.76C122.13 123.76 122.37 123.02 122.86 122.46C123.35 121.9 124.01 121.62 124.85 121.62C125.43 121.62 126.01 121.76 126.59 122.03M113.03 121.72H114.19C114.85 121.72 115.33 121.83 115.63 122.06C115.93 122.28 116.08 122.65 116.08 123.16C116.08 123.67 115.93 124.03 115.64 124.28C115.35 124.53 114.88 124.65 114.26 124.65H113.04V121.72H113.03ZM114.63 125.42L116.49 128.61H117.54L115.46 125.17C116.49 124.81 117 124.13 117 123.11C117 122.39 116.78 121.84 116.33 121.49C115.88 121.13 115.19 120.95 114.25 120.95H112.15V128.61H113.04V125.42H114.64H114.63ZM105.08 122.42C105.52 121.88 106.17 121.62 107.02 121.62C107.87 121.62 108.5 121.89 108.94 122.42C109.38 122.95 109.59 123.74 109.59 124.77C109.59 125.8 109.37 126.6 108.94 127.13C108.51 127.67 107.87 127.93 107.02 127.93C106.17 127.93 105.54 127.66 105.09 127.13C104.65 126.59 104.43 125.81 104.43 124.77C104.43 123.73 104.65 122.97 105.09 122.43M109.61 121.88C108.99 121.18 108.13 120.83 107.03 120.83C105.93 120.83 105.02 121.17 104.41 121.86C103.79 122.55 103.49 123.51 103.49 124.76C103.49 126.01 103.8 126.99 104.41 127.68C105.02 128.37 105.9 128.72 107.02 128.72C108.14 128.72 108.99 128.37 109.61 127.67C110.23 126.97 110.54 126 110.54 124.78C110.54 123.56 110.23 122.59 109.61 121.89M99.1898 125.35H102.37V124.56H99.1898V121.76H102.57V120.97H98.2998V128.63H99.1898V125.35Z" fill="#9D9C9C"/>
<path d="M196.24 107.84H195.27L197.82 112.57V115.5H198.72V112.53L201.28 107.84H200.32L198.28 111.67L196.25 107.84H196.24ZM194.17 108.94L194.55 108.17C193.95 107.88 193.25 107.73 192.44 107.73C191.69 107.73 191.03 107.89 190.47 108.21C189.91 108.53 189.49 108.99 189.19 109.58C188.9 110.17 188.75 110.87 188.75 111.66C188.75 112.92 189.06 113.9 189.67 114.58C190.28 115.27 191.15 115.61 192.28 115.61C193.06 115.61 193.71 115.51 194.25 115.31V114.53C193.56 114.72 192.95 114.82 192.42 114.82C191.55 114.82 190.88 114.55 190.41 114C189.94 113.45 189.7 112.68 189.7 111.67C189.7 110.66 189.94 109.93 190.43 109.37C190.92 108.81 191.58 108.53 192.42 108.53C193 108.53 193.58 108.67 194.16 108.94M187.15 107.84H186.32V112.24C186.32 112.46 186.32 112.83 186.35 113.34C186.37 113.85 186.39 114.16 186.4 114.25H186.36L182.18 107.84H181.17V115.5H181.99V111.14C181.99 110.51 181.96 109.82 181.91 109.06H181.95L186.14 115.49H187.16V107.83L187.15 107.84ZM179.69 114.71H176.31V111.89H179.49V111.1H176.31V108.63H179.69V107.84H175.42V115.5H179.69V114.7V114.71ZM171.04 112.29H172.75V114.65C172.24 114.77 171.72 114.83 171.19 114.83C170.21 114.83 169.47 114.56 168.96 114.03C168.45 113.49 168.2 112.71 168.2 111.68C168.2 110.65 168.46 109.92 168.99 109.37C169.52 108.81 170.24 108.54 171.18 108.54C171.82 108.54 172.49 108.69 173.18 108.98L173.53 108.19C172.82 107.89 172.06 107.74 171.24 107.74C170.42 107.74 169.73 107.9 169.13 108.21C168.53 108.53 168.07 108.98 167.75 109.58C167.43 110.18 167.27 110.88 167.27 111.67C167.27 112.91 167.59 113.88 168.24 114.57C168.89 115.26 169.79 115.61 170.95 115.61C171.5 115.61 171.99 115.58 172.41 115.51C172.83 115.44 173.24 115.35 173.65 115.22V111.49H171.04V112.29V112.29ZM162.23 112.27L163.13 109.89C163.27 109.49 163.38 109.12 163.46 108.78C163.58 109.22 163.7 109.59 163.82 109.89L164.71 112.27H162.23V112.27ZM166.87 115.51L163.85 107.82H163.1L160.07 115.51H160.97L161.91 113.07H164.98L165.93 115.51H166.85H166.87ZM156.23 107.85H155.4V112.25C155.4 112.47 155.4 112.84 155.43 113.35C155.45 113.86 155.47 114.17 155.48 114.26H155.44L151.26 107.85H150.25V115.51H151.07V111.15C151.07 110.52 151.04 109.83 150.99 109.07H151.03L155.22 115.5H156.24V107.84L156.23 107.85ZM143.19 109.33C143.63 108.79 144.28 108.53 145.13 108.53C145.98 108.53 146.61 108.8 147.05 109.33C147.49 109.86 147.7 110.65 147.7 111.68C147.7 112.71 147.48 113.51 147.05 114.04C146.62 114.57 145.98 114.84 145.13 114.84C144.28 114.84 143.65 114.57 143.2 114.03C142.76 113.49 142.54 112.71 142.54 111.67C142.54 110.63 142.76 109.87 143.2 109.33M147.72 108.78C147.1 108.08 146.24 107.73 145.14 107.73C144.04 107.73 143.13 108.07 142.52 108.76C141.9 109.45 141.6 110.41 141.6 111.66C141.6 112.91 141.91 113.89 142.52 114.58C143.13 115.27 144 115.62 145.13 115.62C146.26 115.62 147.1 115.27 147.72 114.57C148.34 113.87 148.65 112.9 148.65 111.68C148.65 110.46 148.34 109.48 147.72 108.79M139.97 107.86H139.08V115.52H139.97V107.86ZM137.12 107.86H136.29V112.26C136.29 112.48 136.29 112.85 136.32 113.36C136.34 113.87 136.36 114.18 136.37 114.27H136.33L132.15 107.86H131.14V115.52H131.96V111.16C131.96 110.53 131.93 109.84 131.88 109.08H131.92L136.11 115.51H137.13V107.85L137.12 107.86ZM128.33 107.86V112.85C128.33 113.49 128.16 113.99 127.81 114.33C127.46 114.67 126.96 114.85 126.32 114.85C125.68 114.85 125.13 114.68 124.78 114.34C124.43 114 124.26 113.51 124.26 112.87V107.87H123.37V112.81C123.37 113.69 123.62 114.38 124.13 114.89C124.63 115.39 125.35 115.65 126.27 115.65C127.19 115.65 127.92 115.4 128.45 114.9C128.98 114.4 129.24 113.71 129.24 112.84V107.88H128.35L128.33 107.86Z" fill="#9D9C9C"/>
<path d="M200.23 94.78H199.4V99.18C199.4 99.4 199.4 99.77 199.43 100.28C199.45 100.79 199.47 101.1 199.48 101.19H199.44L195.26 94.78H194.25V102.44H195.07V98.08C195.07 97.45 195.04 96.76 194.99 96H195.03L199.22 102.43H200.24V94.77L200.23 94.78ZM188.5 99.2L189.4 96.83C189.54 96.43 189.65 96.06 189.73 95.72C189.85 96.16 189.97 96.53 190.09 96.83L190.98 99.2H188.5V99.2ZM193.13 102.44L190.12 94.75H189.37L186.34 102.44H187.24L188.18 100H191.25L192.2 102.44H193.12H193.13ZM185.42 101.64H182.04V98.82H185.22V98.03H182.04V95.56H185.42V94.77H181.15V102.43H185.42V101.63V101.64ZM175.8 95.54H176.8C177.5 95.54 178.02 95.66 178.35 95.91C178.68 96.16 178.85 96.54 178.85 97.04C178.85 97.6 178.67 98.01 178.32 98.27C177.97 98.53 177.4 98.65 176.61 98.65H175.81V95.54H175.8ZM176.9 94.77H174.91V102.43H175.8V99.42H176.7C177.69 99.42 178.44 99.21 178.97 98.79C179.5 98.37 179.76 97.78 179.76 97C179.76 95.51 178.8 94.77 176.89 94.77M167.85 96.25C168.29 95.71 168.94 95.45 169.79 95.45C170.64 95.45 171.27 95.72 171.71 96.25C172.15 96.78 172.36 97.57 172.36 98.6C172.36 99.63 172.14 100.43 171.71 100.96C171.28 101.5 170.64 101.76 169.79 101.76C168.94 101.76 168.31 101.49 167.86 100.96C167.42 100.42 167.2 99.64 167.2 98.6C167.2 97.56 167.42 96.8 167.86 96.26M172.38 95.71C171.76 95.01 170.9 94.66 169.8 94.66C168.7 94.66 167.79 95 167.18 95.69C166.57 96.38 166.26 97.34 166.26 98.59C166.26 99.84 166.57 100.82 167.18 101.51C167.79 102.2 168.66 102.54 169.79 102.54C170.92 102.54 171.76 102.19 172.38 101.49C173 100.79 173.31 99.82 173.31 98.6C173.31 97.38 173 96.4 172.38 95.71M161.07 95.56H162.23C162.89 95.56 163.37 95.67 163.67 95.89C163.97 96.11 164.12 96.48 164.12 96.99C164.12 97.5 163.97 97.86 163.68 98.11C163.39 98.36 162.92 98.48 162.3 98.48H161.08V95.55L161.07 95.56ZM162.67 99.26L164.53 102.45H165.58L163.5 99.01C164.53 98.65 165.04 97.97 165.04 96.95C165.04 96.23 164.82 95.68 164.37 95.32C163.92 94.96 163.23 94.78 162.29 94.78H160.19V102.44H161.08V99.25H162.68L162.67 99.26ZM157.38 94.78V99.77C157.38 100.41 157.21 100.91 156.86 101.25C156.51 101.59 156.01 101.77 155.37 101.77C154.69 101.77 154.18 101.6 153.83 101.26C153.48 100.92 153.3 100.43 153.3 99.79V94.79H152.41V99.73C152.41 100.61 152.66 101.3 153.17 101.81C153.68 102.32 154.39 102.56 155.31 102.56C156.23 102.56 156.96 102.31 157.49 101.81C158.02 101.31 158.28 100.62 158.28 99.75V94.79H157.39L157.38 94.78ZM151.01 101.65H147.63V98.83H150.81V98.04H147.63V95.57H151.01V94.78H146.74V102.44H151.01V101.64V101.65Z" fill="#9D9C9C"/>
</g>
<defs>
<clipPath id="clip0_1204_2540">
<rect width="201.28" height="137.84" fill="white"/>
</clipPath>
</defs>
</svg>
