<svg width="16" height="17" viewBox="0 0 16 17" fill="none" xmlns="http://www.w3.org/2000/svg">
<path d="M16 8.3437C16 7.24799 15.7931 6.16301 15.391 5.15071C14.989 4.1384 14.3997 3.2186 13.6569 2.44381C12.914 1.66903 12.0321 1.05444 11.0615 0.635127C10.0909 0.215816 9.05057 0 8 0C5.87827 0 3.84344 0.879066 2.34315 2.44381C0.842855 4.00856 0 6.13082 0 8.3437C0 10.5566 0.842855 12.6788 2.34315 14.2436C3.84344 15.8083 5.87827 16.6874 8 16.6874C10.1217 16.6874 12.1566 15.8083 13.6569 14.2436C15.1571 12.6788 16 10.5566 16 8.3437ZM14.344 7.50933H12C11.8681 5.54701 11.2234 3.65984 10.136 2.05255C11.2532 2.46637 12.2382 3.1957 12.9812 4.15921C13.7242 5.12271 14.196 6.28253 14.344 7.50933ZM5.664 9.17807H10.4C10.1953 11.2395 9.35284 13.1753 8 14.6933C6.64806 13.1817 5.82495 11.2384 5.664 9.17807ZM5.664 7.50933C5.85031 5.45831 6.67007 3.52581 8 2.00249C9.36377 3.50946 10.2081 5.4468 10.4 7.50933H5.664ZM5.952 2.02752C4.85884 3.64371 4.20384 5.53748 4.056 7.50933H1.656C1.80712 6.26737 2.29009 5.09477 3.04973 4.12544C3.80938 3.15611 4.81509 2.42913 5.952 2.02752ZM1.656 9.17807H4.056C4.18775 11.1482 4.8383 13.0423 5.936 14.6515C4.80318 14.248 3.80159 13.5211 3.04501 12.5536C2.28844 11.586 1.80721 10.4166 1.656 9.17807ZM10.096 14.6432C11.1907 13.0334 11.8485 11.1453 12 9.17807H14.36C14.2087 10.4131 13.7292 11.5795 12.9757 12.5452C12.2222 13.511 11.2247 14.2377 10.096 14.6432Z" fill="white"/>
</svg>
